<?xml version="1.0" encoding="UTF-8" standalone="no"?>
<svg
   viewBox="0 0 27.005367 17.300001"
   version="1.1"
   id="svg4"
   sodipodi:docname="wynnscript.svg"
   inkscape:version="1.1.2 (b8e25be833, 2022-02-05)"
   width="27.005367"
   height="17.300001"
   xmlns:inkscape="http://www.inkscape.org/namespaces/inkscape"
   xmlns:sodipodi="http://sodipodi.sourceforge.net/DTD/sodipodi-0.dtd"
   xmlns="http://www.w3.org/2000/svg"
   xmlns:svg="http://www.w3.org/2000/svg">
  <defs
     id="defs8" />
  <sodipodi:namedview
     id="namedview6"
     pagecolor="#ffffff"
     bordercolor="#666666"
     borderopacity="1.0"
     inkscape:pageshadow="2"
     inkscape:pageopacity="0.0"
     inkscape:pagecheckerboard="0"
     showgrid="false"
     inkscape:zoom="16"
     inkscape:cx="26.84375"
     inkscape:cy="4.09375"
     inkscape:window-width="1920"
     inkscape:window-height="1001"
     inkscape:window-x="-9"
     inkscape:window-y="-9"
     inkscape:window-maximized="1"
     inkscape:current-layer="svg4"
     width="31px"
     fit-margin-top="2.5"
     lock-margins="false"
     fit-margin-left="6.5"
     fit-margin-right="0"
     fit-margin-bottom="2.5" />
  <path
     d="m 24.605367,11.5 c 0,-0.5 -0.2,-0.8 -0.5,-1.1 -0.3,-0.3 -0.9,-0.5000003 -1.7,-0.8000003 -1.4,-0.4 -2.5,-0.8999997 -3.3,-1.4999997 -0.7,-0.6 -1.1,-1.3 -1.1,-2.3 0,-1 0.4,-1.8 1.3,-2.4 0.8,-0.6 1.9,-0.9 3.2,-0.9 1.3,0 2.4,0.4 3.2,1.1 0.8,0.7 1.2,1.6 1.2,2.6 h -2.3 c 0,-0.6 -0.2,-1 -0.6,-1.4 -0.4,-0.3 -0.9,-0.5 -1.6,-0.5 -0.6,0 -1.1,0.1 -1.5,0.4 -0.4,0.3 -0.5,0.7 -0.5,1.1 0,0.4 0.2,0.7 0.6,1 0.4,0.3 1,0.5 2,0.8 1.3,0.4 2.3,0.9 3,1.4999997 0.7,0.6 1,1.4000003 1,2.4000003 0,1 -0.4,1.900001 -1.2,2.400001 -0.8,0.6 -1.9,0.9 -3.2,0.9 -1.3,0 -2.5,-0.3 -3.4,-1 -0.9,-0.7 -1.5,-1.600001 -1.4,-2.900001 h 2.4 c 0,0.7 0.2,1.2 0.7,1.6 0.4,0.300001 1.1,0.500001 1.8,0.500001 0.7,0 1.2,-0.1 1.5,-0.4 0.2,-0.300001 0.4,-0.700001 0.4,-1.100001 z"
     fill="#529bba"
     id="path2"
     sodipodi:nodetypes="ssccscsscccsssscsscsscccscs"
     style="fill:#8dc149;fill-opacity:1" />
  <g
     aria-label="W"
     transform="matrix(0.93184947,0,0,1.0731347,0.05515826,0.1950047)"
     id="text1500"
     style="font-weight:bold;font-stretch:condensed;font-size:15.5707px;line-height:1.25;font-family:Arial;-inkscape-font-specification:'Arial Bold Condensed';fill:#8dc149;stroke-width:0.973166;fill-opacity:1">
    <path
       d="M 9.09821,13.419243 6.9161833,2.2734115 h 1.8931173 l 1.3685184,7.6561008 1.672637,-7.6561008 h 2.197234 l 1.604207,7.7853505 1.406533,-7.7853505 h 1.855103 L 16.693492,13.419243 H 14.731949 L 12.907257,5.0864774 11.097769,13.419243 Z"
       id="path823"
       style="fill:#8dc149;fill-opacity:1" />
  </g>
</svg>
